<?xml version="1.0" encoding="UTF-8"?>
<svg width="220px" height="50px" viewBox="0 0 220 50" version="1.1" xmlns="http://www.w3.org/2000/svg" xmlns:xlink="http://www.w3.org/1999/xlink">
    <!-- Generator: Sketch 40.2 (33826) - http://www.bohemiancoding.com/sketch -->
    <title>md-logo</title>
    <desc>Created with Sketch.</desc>
    <defs></defs>
    <g id="Page-1" stroke="none" stroke-width="1" fill="none" fill-rule="evenodd">
        <g id="mcdev-sampleapp-05" transform="translate(-19.000000, -15.000000)">
            <g id="Header">
                <g id="md-logo" transform="translate(19.000000, 15.000000)">
                    <g id="cogs-copy">
                        <g id="Layer_1">
                            <path d="M91.3609272,28.2549669 C89.9742625,27.6447084 88.5456612,27.1345727 87.0860927,26.7284768 C87.1964067,25.5234908 87.1964067,24.3109463 87.0860927,23.1059603 C88.5457415,22.6987658 89.9743431,22.1875235 91.3609272,21.5761589 C91.6315834,21.4574637 91.869152,21.2744564 92.0529801,21.0430464 C91.9150532,20.1417349 91.7282435,19.2485855 91.4933775,18.3675497 C91.2726269,17.5529801 91.0165563,16.7582781 90.7251656,15.9834437 C90.4375271,15.8638365 90.1235922,15.821598 89.8145695,15.8609272 C88.3069558,16.0253024 86.8130622,16.2975231 85.3443709,16.6754967 C84.8370668,15.5798966 84.229629,14.5335074 83.5298013,13.5496689 C84.5939286,12.4649587 85.5788006,11.3052442 86.4768212,10.0794702 C86.6528098,9.83824076 86.7665476,9.55730841 86.807947,9.2615894 C86.2382039,8.55030627 85.6302442,7.87049684 84.986755,7.22516556 C84.3907285,6.62913907 83.7715232,6.06953642 83.1291391,5.54635762 C82.8199821,5.58595696 82.5265853,5.70582727 82.2781457,5.89403974 C81.0523787,6.79206927 79.8926649,7.77694079 78.807947,8.8410596 C77.8240881,8.14126374 76.7777018,7.53382766 75.6821192,7.02649007 C76.0600928,5.55779871 76.3323134,4.06390511 76.4966887,2.55629139 C76.5337362,2.25817441 76.4961893,1.95552328 76.3874172,1.67549669 C75.5381882,1.3439159 74.6715684,1.05872725 73.7913907,0.821192053 C72.9768212,0.600441501 72.1611479,0.424944812 71.3443709,0.294701987 C71.0967136,0.483207155 70.9026563,0.73319865 70.781457,1.01986755 C70.1789703,2.40824075 69.6765841,3.83793888 69.2781457,5.29801325 C68.0731597,5.1876993 66.8606152,5.1876993 65.6556291,5.29801325 C65.2492221,3.84069801 64.7390903,2.41432069 64.1291391,1.02980132 C64.0104297,0.756386076 63.8261938,0.516424458 63.5927152,0.331125828 C62.6950534,0.463950626 61.8052327,0.645230859 60.9271523,0.874172185 C60.1125828,1.09492274 59.3178808,1.35099338 58.5430464,1.64238411 C58.4234391,1.93002261 58.3812006,2.24395746 58.4205298,2.55298013 C58.5839867,4.05043119 58.8539867,5.53432471 59.2284768,6.99337748 C58.1248805,7.49941264 57.0706819,8.10687934 56.0794702,8.80794702 C55.003408,7.75506826 53.8536982,6.780194 52.6390728,5.89072848 C52.3978434,5.71473985 52.1169111,5.60100205 51.8211921,5.55960265 C51.1099089,6.12934577 50.4300995,6.73730542 49.7847682,7.3807947 C49.1887417,7.97682119 48.6291391,8.59602649 48.1059603,9.2384106 C48.1455596,9.54756757 48.2654299,9.84096442 48.4536424,10.089404 C49.3392909,11.2990864 50.3097227,12.4443508 51.3576159,13.5165563 C50.6483882,14.5079264 50.0331425,15.5632668 49.5198675,16.6688742 C48.0725458,16.2992848 46.6008764,16.0326139 45.115894,15.8708609 C44.8177771,15.8338135 44.5151259,15.8713604 44.2350993,15.9801325 C43.9027383,16.8260444 43.6164469,17.6893402 43.3774834,18.5662252 C43.1567329,19.3807947 42.9812362,20.196468 42.8509934,21.013245 C43.0394985,21.2609023 43.28949,21.4549596 43.5761589,21.5761589 C44.9395102,22.1778094 46.3436689,22.6823771 47.7781457,23.0860927 C47.6653932,24.3042397 47.6653932,25.5301974 47.7781457,26.7483444 C46.344873,27.1511098 44.941826,27.6545691 43.5794702,28.2549669 C43.3036537,28.372742 43.0613293,28.557045 42.8741722,28.7913907 C43.0091792,29.6891762 43.1926704,30.5789982 43.4238411,31.4569536 C43.6445916,32.2715232 43.9006623,33.0662252 44.192053,33.8410596 C44.4796915,33.9606668 44.7936263,34.0029053 45.102649,33.9635762 C46.5785896,33.8029422 48.0413744,33.5384901 49.4801325,33.1721854 C49.9936341,34.2895027 50.6111469,35.3560149 51.3245033,36.3576159 C50.2878219,37.4211372 49.3273851,38.5564001 48.4503311,39.7549669 C48.2743425,39.9961963 48.1606047,40.2771287 48.1192053,40.5728477 C48.6889484,41.2841308 49.2969081,41.9639402 49.9403974,42.6092715 C50.5364238,43.205298 51.1556291,43.7649007 51.7980132,44.2880795 C52.1071702,44.2484801 52.4005671,44.1286098 52.6490066,43.9403974 C53.8409424,43.0604549 54.9695516,42.0978177 56.0264901,41.0596026 C57.025208,41.7701133 58.0883624,42.3853903 59.2019868,42.897351 C58.835725,44.3361184 58.5712735,45.7989002 58.410596,47.2748344 C58.3735486,47.5729514 58.4110955,47.8756026 58.5198675,48.1556291 C59.3690966,48.4872099 60.2357163,48.7723986 61.115894,49.0099338 C61.9304636,49.2306843 62.7461369,49.406181 63.5629139,49.5364238 C63.8105712,49.3479187 64.0046285,49.0979272 64.1258278,48.8112583 C64.7262256,47.4489025 65.2296849,46.0458555 65.6324503,44.6125828 C66.8505973,44.7253353 68.076555,44.7253353 69.294702,44.6125828 C69.6984071,46.047063 70.202975,47.4512224 70.8046358,48.8145695 C70.9224108,49.0903861 71.1067138,49.3327104 71.3410596,49.5198675 C72.2423711,49.3819406 73.1355204,49.1951309 74.0165563,48.9602649 C74.8311258,48.7395143 75.6258278,48.4834437 76.4006623,48.192053 C76.5202695,47.9044145 76.562508,47.5904796 76.5231788,47.281457 C76.3614368,45.796473 76.0947658,44.3248029 75.7251656,42.8774834 C76.8307729,42.3642085 77.8861133,41.7489628 78.8774834,41.0397351 C79.9496739,42.0876448 81.0949396,43.0580776 82.3046358,43.9437086 C82.5458652,44.1196972 82.8267976,44.233435 83.1225166,44.2748344 C83.8337997,43.7050913 84.5136091,43.0971317 85.1589404,42.4536424 C85.7549669,41.8576159 86.3145695,41.2384106 86.8377483,40.5960265 C86.798149,40.2868695 86.6782787,39.9934727 86.4900662,39.7450331 C85.6006095,38.5304008 84.6257347,37.3806904 83.5728477,36.3046358 C84.2739154,35.3134241 84.8813821,34.2592255 85.3874172,33.1556291 C86.8464724,33.5301083 88.3303651,33.8001081 89.8278146,33.9635762 C90.1259315,34.0006236 90.4285827,33.9630767 90.7086093,33.8543046 C91.0401901,33.0050756 91.3253787,32.1384558 91.5629139,31.2582781 C91.7836645,30.4437086 91.9591611,29.6280353 92.089404,28.8112583 C91.8991458,28.5655733 91.6480393,28.3738193 91.3609272,28.2549669 L91.3609272,28.2549669 Z M67.4668874,33.4701987 C62.7432069,33.4701987 58.9139073,29.640899 58.9139073,24.9172185 C58.9139073,20.1935381 62.7432069,16.3642384 67.4668874,16.3642384 C72.1905679,16.3642384 76.0198675,20.1935381 76.0198675,24.9172185 C76.0198675,27.1856099 75.1187526,29.3610939 73.5147577,30.9650888 C71.9107627,32.5690837 69.7352788,33.4701987 67.4668874,33.4701987 L67.4668874,33.4701987 Z" id="Shape" fill="#F99F1C"></path>
                            <path d="M49.7086093,22.3112583 C49.4618085,22.1212071 49.1695649,21.9990584 48.8609272,21.9569536 C47.3596061,21.7249599 45.8435699,21.6010212 44.3245033,21.5860927 C44.1236551,20.3955742 43.8132863,19.226149 43.397351,18.0927152 C44.7036975,17.3211458 45.9530379,16.4568988 47.1357616,15.5066225 C47.3728703,15.3225099 47.5605971,15.0824473 47.6821192,14.807947 C47.3160411,13.9727647 46.9048385,13.1580974 46.4503311,12.3675497 C46.0242826,11.6280353 45.5695364,10.9271523 45.0860927,10.2649007 C44.7776477,10.22348 44.463733,10.2634328 44.1754967,10.3807947 C42.7610287,10.9296146 41.3877479,11.5791841 40.0662252,12.3245033 C39.2938917,11.3941916 38.4382441,10.5363273 37.5099338,9.7615894 C38.2537123,8.44319051 38.9021684,7.07324413 39.4503311,5.66225166 C39.5630473,5.38437366 39.6051409,5.0828928 39.5728477,4.78476821 C38.8378394,4.24477852 38.0740192,3.74514507 37.2847682,3.28807947 C36.5540839,2.86203091 35.8112583,2.4812362 35.0562914,2.14569536 C34.7679751,2.2640512 34.5156776,2.45584292 34.3245033,2.70198675 C33.38099,3.87558788 32.5223033,5.11492944 31.7549669,6.41059603 C30.6167392,5.98800666 29.4417119,5.6720795 28.2450331,5.46688742 C28.2293308,3.96226924 28.1065036,2.46067912 27.8774834,0.973509934 C27.836611,0.676636219 27.722849,0.394506543 27.5463576,0.152317881 C26.6391974,0.0520456301 25.7272539,0.00119787365 24.8145695,0 C23.9713024,0 23.1379691,0.0419426049 22.3145695,0.125827815 C22.1245184,0.372628573 22.0023697,0.664872212 21.9602649,0.973509934 C21.7308292,2.45512364 21.6068972,3.95116006 21.589404,5.45033113 C20.3864317,5.65005729 19.2047123,5.96156118 18.0596026,6.3807947 C17.2975905,5.09589469 16.4455711,3.86655247 15.5099338,2.70198675 C15.325424,2.46608837 15.0853952,2.27952572 14.8112583,2.1589404 C13.976076,2.52501852 13.1614086,2.93622106 12.3708609,3.39072848 C11.6291391,3.81236203 10.9271523,4.26490066 10.2649007,4.74834437 C10.22348,5.05678936 10.2634328,5.37070409 10.3807947,5.6589404 C10.919495,7.04868979 11.5557377,8.3986309 12.2847682,9.6986755 C11.3427588,10.4790504 10.4748346,11.3447578 9.69205298,12.2847682 C8.39415337,11.5560096 7.0464336,10.9197708 5.6589404,10.3807947 C5.38049594,10.2703261 5.07903372,10.2305103 4.78145695,10.2649007 C4.24146726,10.999909 3.74183382,11.7637291 3.28476821,12.5529801 C2.86092715,13.281457 2.4812362,14.0231788 2.14569536,14.7781457 C2.2640512,15.066462 2.45584292,15.3187595 2.70198675,15.5099338 C3.85518814,16.4397033 5.07231535,17.2872664 6.34437086,18.0463576 C5.91865276,19.1951779 5.60159178,20.3813851 5.39735099,21.589404 C3.91594701,21.6081185 2.43769052,21.7309377 0.973509934,21.9569536 C0.676636219,21.9978261 0.394506543,22.1115881 0.152317881,22.2880795 C0.0520456301,23.1952397 0.00119787365,24.1071832 0,25.0198675 C0,25.8631347 0.0419426049,26.696468 0.125827815,27.5198675 C0.372628573,27.7099187 0.664872212,27.8320674 0.973509934,27.8741722 C2.44089174,28.1017612 3.92248447,28.2256883 5.40728477,28.2450331 C5.61156359,29.4530437 5.92862364,30.6392474 6.35430464,31.7880795 C5.0822432,32.5471615 3.86511536,33.3947251 2.71192053,34.3245033 C2.47602215,34.5090131 2.28945949,34.7490418 2.16887417,35.0231788 C2.5349523,35.8583611 2.94615483,36.6730285 3.40066225,37.4635762 C3.82229581,38.1942605 4.27483444,38.8951435 4.75827815,39.5662252 C5.06672314,39.6076458 5.38063786,39.567693 5.66887417,39.4503311 C7.05637172,38.9113652 8.4040922,38.2751261 9.70198675,37.5463576 C10.4847684,38.4863681 11.3526926,39.3520754 12.294702,40.1324503 C11.5656519,41.4324848 10.9294085,42.7824273 10.3907285,44.1721854 C10.2780123,44.4500634 10.2359187,44.7515443 10.2682119,45.0496689 C11.0032202,45.5896586 11.7670404,46.089292 12.5562914,46.5463576 C13.2869757,46.9679912 14.0298013,47.3487859 14.7847682,47.6887417 C15.0730845,47.5703859 15.325382,47.3785942 15.5165563,47.1324503 C16.4522114,45.9678979 17.3042317,44.7385544 18.0662252,43.4536424 C19.2085625,43.8677759 20.3869199,44.1748361 21.5860927,44.3708609 C21.6035748,45.8700325 21.7275069,47.3660697 21.9569536,48.8476821 C21.9978261,49.1445558 22.1115881,49.4266855 22.2880795,49.6688742 C23.1941417,49.7690266 24.1049766,49.8198742 25.0165563,49.8211921 C25.8598234,49.8211921 26.6931567,49.7792494 27.5165563,49.6953642 C27.7066074,49.4485635 27.8287562,49.1563198 27.8708609,48.8476821 C28.1024368,47.3662174 28.2285815,45.8701856 28.2483444,44.3708609 C29.4450273,44.1656875 30.6200563,43.8497599 31.7582781,43.4271523 C32.5254813,44.7239563 33.3841705,45.9644082 34.3278146,47.1390728 C34.5123243,47.3749712 34.7523531,47.5615339 35.0264901,47.6821192 C35.8616723,47.3160411 36.6763397,46.9048385 37.4668874,46.4503311 C38.1975717,46.0286976 38.8984547,45.5761589 39.5695364,45.0927152 C39.6109571,44.7842702 39.5710043,44.4703555 39.4536424,44.1821192 C38.9062051,42.7654735 38.2577381,41.3899709 37.513245,40.0662252 C38.4415553,39.2914873 39.297203,38.4336229 40.0695364,37.5033113 C41.3890203,38.2472023 42.7600757,38.8956595 44.1721854,39.4437086 C44.4500634,39.5564248 44.7515443,39.5985184 45.0496689,39.5662252 C45.5896586,38.8312168 46.089292,38.0673967 46.5463576,37.2781457 C46.9679912,36.5474614 47.3487859,35.8046358 47.6887417,35.0496689 C47.5703859,34.7613526 47.3785942,34.5090551 47.1324503,34.3178808 C45.9497266,33.3676045 44.7003862,32.5033575 43.3940397,31.7317881 C43.8100111,30.5983657 44.1203808,29.4289371 44.3211921,28.2384106 C45.8402591,28.2234935 47.3562961,28.0995547 48.8576159,27.8675497 C49.1544896,27.8266772 49.4366193,27.7129152 49.6788079,27.5364238 C49.7789604,26.6303616 49.8298079,25.7195268 49.8311258,24.807947 C49.8333333,23.9668874 49.7924945,23.1346578 49.7086093,22.3112583 L49.7086093,22.3112583 Z M24.9172185,33.4701987 C20.1935381,33.4701987 16.3642384,29.640899 16.3642384,24.9172185 C16.3642384,20.1935381 20.1935381,16.3642384 24.9172185,16.3642384 C29.640899,16.3642384 33.4701987,20.1935381 33.4701987,24.9172185 C33.4701987,29.640899 29.640899,33.4701987 24.9172185,33.4701987 L24.9172185,33.4701987 Z" id="Shape" fill="#ED1C24"></path>
                        </g>
                    </g>
                    <text id="mastercard-developer" font-family="MarkOffcPro-Bold, Mark Offc Pro" font-size="20" font-weight="bold" line-spacing="20" fill="#222222">
                        <tspan x="108" y="21">mastercard</tspan>
                        <tspan x="108" y="41">developers</tspan>
                    </text>
                </g>
            </g>
        </g>
    </g>
</svg>